<mxfile host="app.diagrams.net" modified="2023-05-04T13:05:56.441Z" agent="Mozilla/5.0 (Windows NT 10.0; Win64; x64) AppleWebKit/537.36 (KHTML, like Gecko) Chrome/110.0.0.0 YaBrowser/23.3.3.719 Yowser/2.5 Safari/537.36" version="21.2.7" etag="ULf6insNF70ZzJyWYRsa" type="github">
  <diagram name="Страница 1" id="t5ShFP7kEqmTcYuRapFY">
    <mxGraphModel>
      <root>
        <mxCell id="0" />
        <mxCell id="1" parent="0" />
      </root>
    </mxGraphModel>
  </diagram>
</mxfile>
